<svg width="342" height="61" viewBox="0 0 342 61" fill="none" xmlns="http://www.w3.org/2000/svg">
<path fill-rule="evenodd" clip-rule="evenodd" d="M339.253 37.32L337.378 37.77C336.928 31.62 333.928 28.02 329.278 28.02C325.829 28.02 323.429 30.195 323.429 33.795C323.429 36.27 324.704 37.62 325.679 38.52C328.978 39.645 332.803 41.07 335.803 42.345C339.778 43.995 341.353 46.62 341.353 49.919C341.353 56.819 334.828 59.969 328.678 59.969C324.629 59.969 319.679 58.694 318.479 57.719C318.554 55.994 318.704 50.969 318.554 47.069L320.354 46.62C320.504 48.194 320.804 50.519 321.479 52.394C322.679 56.069 325.679 57.719 329.503 57.719C334.003 57.719 336.628 55.394 336.553 51.719C336.553 49.769 335.803 48.194 333.628 47.219C331.003 45.945 327.329 44.445 324.854 43.32C321.479 41.895 319.079 39.57 319.079 35.445C319.079 29.445 323.879 25.845 329.878 25.845C332.878 25.845 335.728 26.895 336.853 27.87L337.678 25.245L339.553 25.845C339.103 29.52 339.028 33.87 339.253 37.32ZM304.078 59.969C300.629 59.969 298.679 58.844 297.629 57.344C296.879 56.219 296.504 54.944 296.504 52.694C296.504 46.47 296.729 35.52 296.729 29.595L291.329 29.145L291.704 26.97H296.804C296.879 24.645 296.879 20.521 296.879 18.571C298.754 17.446 300.704 16.096 301.604 15.271L302.204 15.496C302.054 17.446 301.829 22.695 301.829 26.97H312.928L312.553 29.145L301.754 29.595C301.679 32.145 301.529 35.07 301.529 40.995C301.529 48.194 301.604 52.019 301.979 53.969C302.354 55.994 303.778 57.194 305.878 57.194C309.478 57.194 311.353 54.869 312.403 50.669H313.303L314.053 53.219C312.028 57.869 308.503 59.969 304.078 59.969ZM280.828 58.919C277.978 58.919 275.803 59.144 273.778 59.144L273.928 57.194C277.603 56.969 278.353 56.594 278.503 55.244C278.653 53.594 278.878 49.844 278.878 43.92C278.878 34.77 278.728 33.87 278.053 32.52C277.078 30.42 275.353 29.22 272.353 29.22C268.153 29.22 265.153 31.32 263.278 34.695C262.604 35.82 262.454 36.945 262.454 38.745V47.369C262.454 50.594 262.454 53.669 262.604 55.169C262.753 56.669 263.353 57.044 267.553 57.194L267.403 59.144C265.378 59.144 261.854 58.919 259.529 58.919C256.979 58.919 254.654 59.144 252.479 59.144V57.194C256.379 57.044 257.129 56.744 257.279 54.944C257.429 52.769 257.504 49.994 257.504 46.395V39.795C257.504 35.67 257.429 32.22 257.354 30.345C257.279 29.22 256.679 29.145 252.554 29.145L252.704 27.195C255.704 27.195 259.229 26.82 262.079 26.145C262.229 27.57 262.454 30.87 262.529 31.995C265.153 29.295 268.828 25.845 274.228 25.845C279.253 25.845 281.728 28.17 282.853 30.57C283.528 31.77 283.753 33.42 283.753 35.22V55.169C283.753 56.819 284.203 56.969 288.927 57.194L288.702 59.144C286.678 59.144 283.903 58.919 280.828 58.919ZM246.028 41.67C244.678 42.195 240.703 42.495 235.753 42.57C232.978 42.57 228.929 42.57 225.929 42.495C225.779 46.919 227.054 50.894 228.554 53.069C230.353 55.619 232.903 56.819 236.278 56.819C241.153 56.819 243.853 54.644 245.878 49.619L247.678 50.594C245.578 56.969 241.003 59.969 234.928 59.969C229.379 59.969 225.929 58.169 223.529 54.869C221.504 52.169 220.379 47.894 220.379 43.62C220.379 34.32 225.629 25.845 235.528 25.845C245.653 25.845 247.828 34.095 247.753 38.595C247.753 40.095 247.303 41.22 246.028 41.67ZM234.928 27.945C228.929 27.945 226.379 34.695 226.079 40.245C228.404 40.245 230.803 40.245 233.353 40.245C237.478 40.245 239.653 40.02 240.928 39.795C241.978 39.57 242.428 38.82 242.428 37.32C242.503 32.82 240.478 27.945 234.928 27.945ZM207.252 58.919C204.477 58.919 202.227 59.144 200.277 59.144V57.194C204.027 56.969 204.777 56.594 204.927 55.244C205.077 53.444 205.302 49.844 205.302 43.92C205.302 34.995 205.152 33.87 204.627 32.67C203.727 30.495 201.777 29.22 198.852 29.22C194.877 29.22 191.728 31.62 190.078 34.62C189.553 35.595 189.328 36.72 189.328 37.995V48.044C189.328 50.744 189.403 53.669 189.478 55.244C189.628 56.744 190.303 57.044 194.502 57.194L194.202 59.144C192.253 59.144 189.103 58.919 186.403 58.919C184.003 58.919 181.678 59.144 179.503 59.144V57.194C183.253 57.044 184.003 56.819 184.153 55.019C184.303 52.769 184.378 50.369 184.378 45.57V40.395C184.378 34.695 184.303 33.795 183.703 32.445C182.728 30.195 181.153 29.22 178.303 29.22C174.403 29.22 171.028 31.47 169.228 34.995C168.628 36.195 168.404 37.02 168.404 38.52V48.344C168.404 51.344 168.479 53.669 168.554 55.244C168.703 56.744 169.303 57.044 173.503 57.194L173.203 59.144C171.253 59.144 167.879 58.919 165.404 58.919C163.304 58.919 160.754 59.144 158.504 59.144V57.194C162.404 57.044 163.154 56.819 163.229 55.019C163.379 53.144 163.454 50.144 163.454 45.795V39.795C163.454 35.67 163.379 32.295 163.229 30.345C163.229 29.22 162.629 29.07 158.354 29.145L158.429 27.195C161.429 27.195 165.104 26.82 168.104 26.145C168.179 27.345 168.404 31.245 168.479 32.295C171.178 29.295 175.303 25.845 180.478 25.845C184.753 25.845 186.853 27.72 187.753 29.145C188.428 30.12 188.728 31.17 189.028 32.07C191.428 29.595 195.252 25.845 201.102 25.845C205.827 25.845 208.227 28.32 209.202 30.195C209.952 31.47 210.177 33.345 210.177 34.995V55.169C210.177 56.819 210.552 56.969 215.352 57.194L215.202 59.144C213.027 59.144 210.252 58.919 207.252 58.919ZM144.778 60.044C144.703 58.169 144.703 54.794 144.703 52.469C142.453 55.694 137.278 59.969 131.053 59.969C127.079 59.969 125.054 58.394 124.229 56.969C123.479 55.844 123.254 54.269 123.254 52.544C123.254 49.169 123.404 41.82 123.479 36.345C123.479 32.745 123.329 30.72 123.254 29.745C123.179 28.77 122.429 28.695 118.304 28.695L118.604 26.745C121.979 26.745 125.504 26.67 128.954 26.07C127.679 28.245 128.429 33.195 128.354 41.37C128.354 48.044 128.429 52.319 128.804 54.044C129.253 55.769 130.678 56.894 133.153 56.894C137.803 56.894 141.928 53.669 143.878 49.169C144.628 47.444 144.778 46.32 144.778 44.595V37.845C144.778 33.795 144.703 31.395 144.553 29.97C144.403 28.92 143.728 28.77 139.153 28.77L139.078 26.82C142.603 26.82 146.203 26.67 150.028 26.295C149.953 28.695 149.728 32.82 149.728 37.545V46.545C149.728 51.494 149.878 54.494 150.028 55.919C150.178 57.044 150.628 57.269 155.652 57.194L155.427 59.069C151.978 59.294 148.453 59.444 144.778 60.044ZM103.378 56.894C108.703 56.894 111.328 54.269 113.278 49.094L115.078 50.069C113.428 55.769 109.078 59.969 101.728 59.969C96.853 59.969 93.329 58.469 90.704 55.394C88.379 52.769 87.029 48.794 87.029 43.395C87.029 34.02 93.104 25.845 103.378 25.845C109.903 25.845 114.553 29.07 114.553 33.87C114.553 36.12 113.278 37.395 111.403 37.395C110.803 37.395 110.203 37.245 109.903 36.87C109.603 36.645 109.303 36.12 109.378 35.595C109.528 34.995 109.678 34.095 109.678 33.495C109.678 30.12 107.878 27.945 103.078 27.945C96.179 27.945 92.729 34.695 92.729 42.72C92.729 46.769 93.554 50.069 95.129 52.544C97.003 55.394 99.928 56.894 103.378 56.894ZM64.603 59.969C58.865 59.969 54.721 57.762 52.152 54.192C53.529 53.024 54.823 51.598 56.001 50.012C56.334 51.056 56.73 51.991 57.179 52.769C58.903 55.994 61.753 57.794 65.203 57.794C68.428 57.794 70.753 56.444 72.478 53.444C73.678 51.269 74.503 47.669 74.503 43.245C74.503 38.97 73.678 35.145 72.328 32.745C70.753 29.97 68.278 28.02 64.678 28.02C63.698 28.02 62.817 28.145 62.015 28.376C61.806 27.642 61.538 26.934 61.222 26.254C62.419 25.989 63.696 25.845 65.053 25.845C74.878 25.845 80.353 33.12 80.353 42.57C80.353 52.919 74.578 59.969 64.603 59.969Z" fill="black"/>
<path fill-rule="evenodd" clip-rule="evenodd" d="M271.648 14.791V20.599H269.896V14.791L263.175 3.79799H265.071L270.832 13.231L276.592 3.79799H278.368L271.648 14.791ZM247.6 5.23799C243.448 5.23799 240.4 8.19099 240.4 12.199C240.4 16.183 243.448 19.159 247.576 19.159C249.184 19.159 250.672 18.799 251.968 17.863V12.199H253.672V18.607C252.088 20.023 249.832 20.743 247.504 20.743C242.392 20.743 238.647 17.119 238.647 12.199C238.647 7.27899 242.392 3.65399 247.528 3.65399C250.072 3.65399 252.28 4.46999 253.768 6.07799L252.664 7.20699C251.248 5.81399 249.568 5.23799 247.6 5.23799ZM220.144 20.743C215.056 20.743 211.311 17.095 211.311 12.199C211.311 7.30299 215.056 3.65399 220.144 3.65399C225.184 3.65399 228.952 7.27899 228.952 12.199C228.952 17.119 225.184 20.743 220.144 20.743ZM220.144 5.23799C216.088 5.23799 213.064 8.19099 213.064 12.199C213.064 16.207 216.088 19.159 220.144 19.159C224.176 19.159 227.176 16.207 227.176 12.199C227.176 8.19099 224.176 5.23799 220.144 5.23799ZM191.8 3.79799H193.576V19.063H202.984V20.599H191.8V3.79799ZM177.928 16.111H168.568L166.551 20.599H164.703L172.384 3.79799H174.136L181.816 20.599H179.944L177.928 16.111ZM173.248 5.64599L169.216 14.671H177.28L173.248 5.64599ZM144.136 3.79799H155.656V5.33399H145.912V11.311H154.6V12.823H145.912V19.063H156.016V20.599H144.136V3.79799ZM119.2 6.96699V20.599H117.424V3.79799H118.888L129.712 17.431V3.79799H131.464V20.599H130L119.2 6.96699ZM94.168 3.79799H105.688V5.33399H95.944V11.311H104.632V12.823H95.944V19.063H106.048V20.599H94.168V3.79799ZM75.88 5.23799C71.728 5.23799 68.68 8.19099 68.68 12.199C68.68 16.183 71.728 19.159 75.856 19.159C77.464 19.159 78.952 18.799 80.248 17.863V12.199H81.952V18.607C80.368 20.023 78.112 20.743 75.784 20.743C70.672 20.743 66.927 17.119 66.927 12.199C66.927 7.27899 70.672 3.65399 75.808 3.65399C78.352 3.65399 80.56 4.46999 82.048 6.07799L80.944 7.20699C79.528 5.81399 77.848 5.23799 75.88 5.23799Z" fill="#DF2F2F"/>
<path fill-rule="evenodd" clip-rule="evenodd" d="M9.021 38.649C9.021 47.575 8.736 53.083 8.547 55.077C8.452 56.787 7.597 57.451 4.748 57.736L0.095 58.021L0 60.585C1.804 60.585 8.167 60.3 11.68 60.3C16.048 60.3 20.512 60.68 24.975 60.68C31.052 60.68 37.13 59.635 41.308 57.641C53.178 51.944 57.546 40.928 57.546 28.393C57.546 16.523 53.178 8.357 45.866 3.894C42.068 1.52 36.75 0 26.494 0C21.081 0 15.859 0.285 11.68 0.285C8.262 0.285 3.039 0 0.855 0L0.665 2.469L6.457 3.039C8.357 3.229 8.831 3.704 8.926 5.223C9.021 7.312 9.021 11.775 9.021 19.277V38.649ZM15.953 19.657C15.953 9.686 16.238 6.363 16.428 4.843C16.523 3.704 16.998 2.849 25.07 2.849C34.186 2.849 39.789 5.223 43.872 9.781C47.1 13.39 49.38 19.657 49.38 28.488C49.38 38.554 47.29 45.486 43.872 49.949C40.358 54.698 34.566 57.831 23.455 57.831C17.473 57.831 16.428 57.072 16.333 55.647C16.143 53.463 15.953 50.139 15.953 38.934V19.657Z" fill="black"/>
</svg>
